{
  "asset": { "version": "2.0" },
  "buffers": [{ "byteLength": 168, "uri": "data:application/octet-stream;base64," }],
  "bufferViews": [
    { "buffer": 0, "byteOffset": 0, "byteLength": 96 },
    { "buffer": 0, "byteOffset": 96, "byteLength": 72 }
  ],
  "accessors": [
    { "bufferView": 0, "componentType": 5126, "count": 8, "type": "VEC3", "min": [-1, 0, -1], "max": [1, 3, 1] },
    { "bufferView": 1, "componentType": 5123, "count": 36, "type": "SCALAR" }
  ],
  "materials": [{ "name": "IndestructibleSafetyOrange", "pbrMetallicRoughness": { "baseColorFactor": [0.95, 0.28, 0.04, 1], "metallicFactor": 0, "roughnessFactor": 0.72 } }],
  "meshes": [{ "primitives": [{ "attributes": { "POSITION": 0 }, "indices": 1, "material": 0 }] }],
  "nodes": [
    { "name": "Visual", "children": [1] },
    { "name": "BoxVisual", "mesh": 0 },
    { "name": "Hit", "children": [3] },
    { "name": "BoxCollision", "mesh": 0 }
  ],
  "scenes": [{ "nodes": [0, 2] }],
  "scene": 0
}
