{
  "asset": { "version": "2.0" },
  "buffers": [
    {
      "byteLength": 60,
      "uri": "data:application/octet-stream;base64,"
    }
  ],
  "bufferViews": [
    { "buffer": 0, "byteOffset": 0, "byteLength": 48 },
    { "buffer": 0, "byteOffset": 48, "byteLength": 12 }
  ],
  "accessors": [
    {
      "bufferView": 0,
      "componentType": 5126,
      "count": 4,
      "type": "VEC3",
      "min": [-10, 0, -10],
      "max": [10, 0, 10]
    },
    {
      "bufferView": 1,
      "componentType": 5123,
      "count": 6,
      "type": "SCALAR"
    }
  ],
  "meshes": [
    {
      "primitives": [
        { "attributes": { "POSITION": 0 }, "indices": 1 }
      ]
    }
  ],
  "nodes": [
    { "name": "Visual", "children": [1] },
    { "name": "GroundVisual", "mesh": 0 },
    { "name": "Hit", "children": [3] },
    { "name": "GroundCollision", "mesh": 0 }
  ],
  "scenes": [ { "nodes": [0, 2] } ],
  "scene": 0
}
